<?xml version="1.0" encoding="UTF-8"?><svg id="a" xmlns="http://www.w3.org/2000/svg" viewBox="0 0 465.44 216.25"><defs><style>.b{font-size:47.86px;}.b,.c{fill:#414042;font-family:ArialMT, Arial;isolation:isolate;}.c{font-size:15.36px;letter-spacing:.32em;}.d{fill:#0097d7;}.e{letter-spacing:.24em;}.f{letter-spacing:.31em;}.g{letter-spacing:.31em;}</style></defs><g><path class="d" d="M271.5,64.1L212.5,5.1c-3.4-3.3-7.8-5.1-12.5-5.1-9.7,0-17.5,7.8-17.5,17.5v24.1c3.1-8.5,15.1-11.9,22.2-4.9l59,59c3.3,3.3,7.8,5.1,12.4,5.1,9.7,0,17.5-7.8,17.5-17.5v-24.1c-3,8.5-15,11.9-22.1,4.9Z"/><path class="d" d="M279.9,0h0c-7.7,0-13.9,6.2-13.9,13.8V49.2l8.2,8c7.3,7.1,19.6,2,19.6-8.2V13.8c-.1-7.6-6.3-13.8-13.9-13.8Z"/><path class="d" d="M182.5,51.9v35.1c0,7.6,6.2,13.8,13.8,13.8h.1c7.6,0,13.8-6.2,13.8-13.8V51.6l-8.2-8c-7.2-7.1-19.5-1.9-19.5,8.3Z"/></g><text class="b" transform="translate(0 181.87)"><tspan class="g" x="0" y="0">NEL</tspan><tspan class="e" x="138.06" y="0">L</tspan><tspan class="f" x="176.1" y="0">YSFORD</tspan></text><text class="c" transform="translate(119.21 211.26)"><tspan x="0" y="0">LETTERMARK LOGO</tspan></text></svg>