<?xml version="1.0" encoding="utf-8"?>
<!-- Generator: Adobe Illustrator 25.0.0, SVG Export Plug-In . SVG Version: 6.00 Build 0)  -->
<svg version="1.1" id="Layer_1" xmlns="http://www.w3.org/2000/svg" xmlns:xlink="http://www.w3.org/1999/xlink" x="0px" y="0px"
	 viewBox="0 0 2000 2000" style="enable-background:new 0 0 2000 2000;" xml:space="preserve">
<style type="text/css">
	.st0{display:none;fill:#F1F1F1;}
	.st1{display:none;fill:#EDECE8;}
	.st2{fill:#07485B;}
	.st3{fill:#0D6986;}
	.st4{fill:#8EC7D2;}
	.st5{fill:#EDE5F4;}
</style>
<rect class="st1" width="2000" height="2000"/>
<g>
	<path class="st2" d="M348.29,1128.89V871.11l188.58,191.01V871.11h29.23v257.78L377.52,940v188.88H348.29z"/>
	<g>
		<path class="st2" d="M1433.9,1128.89V871.11l188.58,191.01V871.11h29.23v257.78L1463.13,940v188.88H1433.9z"/>
		<path class="st2" d="M627.73,1128.89V871.11h135.93v28H658.36v73.95h105.29v28.52H658.36v98.78h105.29v28.52H627.73z"/>
		<path class="st2" d="M815.6,1128.89V871.11h30.64v228.55h97.37v29.23H815.6z"/>
		<path class="st2" d="M1072.5,986.24c15.99,6.83,28.05,15.89,36.17,27.19c8.11,11.3,12.17,24.67,12.17,40.11
			c0,22.6-7.19,40.81-21.57,54.63c-14.38,13.82-33.42,20.72-57.14,20.72c-19.36,0-35.58-4.95-48.67-14.85
			c-13.09-9.9-21.93-23.97-26.52-42.21l26.52-13.09c3.58,14.88,9.48,26.16,17.71,33.82c8.22,7.67,18.54,11.5,30.96,11.5
			c14.65,0,26.51-4.22,35.58-12.67c9.06-8.45,13.59-19.44,13.59-32.98c0-10.96-3.16-20.5-9.48-28.61
			c-6.32-8.11-15.85-14.96-28.61-20.56l-29.87-12.76c-16.34-6.82-28.5-15.61-36.5-26.35c-8-10.74-12-23.6-12-38.6
			c0-17.45,6.49-31.89,19.47-43.3c12.98-11.41,29.54-17.12,49.68-17.12c14.77,0,27.55,3.13,38.35,9.4
			c10.79,6.27,19.22,15.5,25.25,27.69l-24.16,15.44c-5.49-9.51-11.64-16.58-18.46-21.23c-6.83-4.64-14.55-6.96-23.16-6.96
			c-10.97,0-19.95,3.36-26.94,10.07c-6.99,6.71-10.49,15.27-10.49,25.68c0,8.72,2.68,16.28,8.05,22.66
			c5.37,6.38,13.71,12.03,25.01,16.95L1072.5,986.24z"/>
		<g>
			<path class="st3" d="M1236.31,1041.97c-23.18-22.67-23.59-59.84-0.91-83.02l-50.17-49.08l0,0c-49.78,50.88-48.88,132.49,2,182.27
				c16.79,16.42,36.92,27.29,58.15,32.71l17.42-67.98C1253.13,1054.4,1243.96,1049.45,1236.31,1041.97z"/>
			<path class="st4" d="M1333.9,984.18c5.44,19.53,0.63,41.34-14.56,56.87c-15.19,15.53-36.89,20.82-56.54,15.81l-17.42,67.98
				c43.12,11,90.76-0.61,124.12-34.71c33.36-34.1,43.92-81.98,31.97-124.85L1333.9,984.18z"/>
			<g>
				<path class="st4" d="M1184.84,1001.61c-0.01-0.54-0.04-1.07-0.04-1.61c0-51.12,41.44-92.57,92.57-92.57
					c16.28,0,31.58,4.22,44.87,11.6c-0.15-13.2-3.45-27.78-11.52-43.54c-10.64-2.84-21.81-4.38-33.35-4.38
					c-71.18,0-128.89,57.71-128.89,128.89c0,11.55,1.54,22.73,4.39,33.38C1162.49,1018.5,1173.47,1008.34,1184.84,1001.61z"/>
				<path class="st3" d="M1310.71,875.49c8.07,15.76,11.37,30.34,11.52,43.54c28.44,15.8,47.7,46.13,47.7,80.97
					c0,33.68-17.99,63.15-44.88,79.34c11.51,6.47,25.78,10.89,43.45,11.79c23.32-23.32,37.75-55.54,37.75-91.13
					C1406.25,940.35,1365.73,890.19,1310.71,875.49z"/>
				<path class="st2" d="M1277.37,1092.57c-50.58,0-91.66-40.58-92.53-90.96c-11.37,6.73-22.35,16.88-31.97,31.76
					c14.71,55,64.86,95.51,124.5,95.51c35.59,0,67.82-14.43,91.14-37.76c-17.68-0.9-31.95-5.32-43.45-11.79
					C1311.13,1087.73,1294.81,1092.57,1277.37,1092.57z"/>
			</g>
			<g>
				<path class="st5" d="M1318.42,958.03c7.65,7.48,12.8,16.54,15.48,26.15l67.58-18.91c-5.88-21.1-17.19-40.99-33.98-57.41
					c-50.88-49.78-132.49-48.88-182.27,2l50.17,49.08C1258.07,935.77,1295.24,935.36,1318.42,958.03z"/>
			</g>
		</g>
	</g>
</g>
</svg>
