<?xml version="1.0" encoding="UTF-8"?><svg id="a" xmlns="http://www.w3.org/2000/svg" viewBox="0 0 400 400"><defs><style>.b{fill:#fefae0;}.c{fill:#45b3dd;}.d{fill:#27aae1;}.e{fill:#5bc0eb;}.f{fill:#0c0e07;opacity:0;}</style></defs><rect class="f" width="400" height="400"/><g><path class="e" d="M367.92,227.05L110.04,375.94c-20.81,12.01-46.85-2.97-46.85-27.05V51.11c0-24.08,26.04-39.07,46.85-27.05l121.48,70.16,15.4,8.86,56.96,32.88,13.74,7.91,9.81,5.65,12.96,7.49,27.53,15.94c20.87,12.01,20.87,42.1,0,54.11Z"/><path class="c" d="M349.07,222.16c-30.58-3.05-63.63-8.69-91.04-23.37-12.3-6.59-22.96-16.2-30.44-28-8.27-13.06-10.95-27.71-12.44-42.83-1.44-14.66-1.68-29.37-1.46-44.08L110.04,24.05c-20.83-12.03-46.87,3-46.87,27.05V348.89c0,24.05,26.03,39.09,46.87,27.06L367.93,227.06c1.68-.97,3.21-2.07,4.62-3.26-7.84-.33-15.67-.86-23.49-1.64Z"/><path class="d" d="M259.11,289.9l-149.07,86.04c-20.81,12.01-46.85-2.97-46.85-27.05V51.11c0-24.08,26.04-39.07,46.85-27.05l6.12,3.51c-1.31,17.07-1.25,34.13-.65,51.25,.59,17.96,1.66,35.86,.89,53.75-.12,2.91-.3,5.83-.54,8.74-1.43,17.84-3.75,36.87-2.97,55.3,.89,19.92,5.53,39.12,18.97,55.24,19.68,23.43,52.68,31.04,81.58,34.72,15.1,1.96,30.32,2.91,45.67,3.33Z"/><g><path class="b" d="M94.58,151.72l-3.03,26.76c-.77,7.02-2.68,13.79-5.53,20.16-3.45,7.73-8.32,14.87-14.51,20.81l-.65,.65c-2.68,2.5-5.23,4.94-7.67,7.37-.36,.36-.71,.71-1.07,1.07C19.12,271.11,3.07,301.74,14.31,319.51c7.08,11.24,23.43,14.81,48.88,10.7v-14.69c-22.12,3.92-33.48,1.25-36.63-3.75-4.58-7.25,2.74-28.07,36.63-63.68,2.62-2.74,5.41-5.59,8.32-8.5l1.01-1.01c4.1-4.04,8.62-7.49,13.5-10.35,10.64-6.12,22.77-9.34,35.2-9.1,2.2,0,4.46,.12,6.66,.36l22.77,2.62,7.13-63.27-33.06-3.75-30.15-3.39Z"/><path class="b" d="M385.7,68.53c-11.3-17.78-45.84-16.35-102.69,4.28-16.11,5.89-33.42,13.02-51.49,21.41l15.4,8.86c14.33-6.36,28.07-11.95,41.03-16.65,55.18-20.04,80.57-18.02,85.5-10.17,4.99,7.85-4.04,31.63-45.72,73.02l-.24,.18-.06,.06c-4.04,4.04-8.5,7.43-13.32,10.23-12.55,7.31-27.23,10.47-41.98,8.8l-22.77-2.56-7.14,63.21,63.21,7.19,3.03-26.76c1.78-15.76,8.98-30.44,20.39-41.38,.12-.06,.24-.18,.36-.3,2.97-2.79,5.89-5.65,8.68-8.44,.83-.83,1.72-1.66,2.5-2.5,41.15-41.27,56.31-71.06,45.31-88.48Z"/></g></g></svg>