<?xml version="1.0" encoding="UTF-8"?><svg id="a" xmlns="http://www.w3.org/2000/svg" viewBox="0 0 400 400"><defs><style>.b{fill:#00a6e0;}.c{fill:#7bddff;}.d{fill:#27aae1;}.e{fill:#0c0e07;opacity:0;}</style></defs><rect class="e" width="400" height="400"/><g><path class="b" d="M47.93,171.36s3.22-92.77,97.39-130.05c94.17-37.28,198.93,16.39,184.96,65.49-13.97,49.1-350.57,138.04-237.62,177.56,0,0-66.04,23.96-85.42-25.01-19.38-48.97,54.91-93.63,166.67-126.24,111.76-32.62,32.55-76.79-125.98,38.25Z"/><path class="d" d="M256.94,343.86c-79.32,31.4-169.4-7.59-200.8-86.92-31.4-79.32,7.59-169.4,86.92-200.8,79.32-31.4,169.4,7.59,200.8,86.92,31.4,79.32-7.59,169.4-86.91,200.8ZM147.6,67.62c-73,28.89-108.88,111.79-79.98,184.78,28.89,73,111.79,108.88,184.78,79.98,73-28.89,108.87-111.79,79.98-184.78-28.89-73-111.79-108.88-184.78-79.98Z"/><path class="c" d="M352.07,228.64s-3.22,92.77-97.39,130.05c-94.17,37.28-198.93-16.39-184.96-65.49,13.97-49.1,350.57-138.04,237.62-177.56,0,0,66.04-23.96,85.42,25.01s-54.91,93.63-166.67,126.24c-111.76,32.62-32.55,76.79,125.98-38.25Z"/></g></svg>