<?xml version="1.0" encoding="utf-8"?>
<!-- Generator: Adobe Illustrator 25.0.0, SVG Export Plug-In . SVG Version: 6.00 Build 0)  -->
<svg version="1.1" id="Layer_1" xmlns="http://www.w3.org/2000/svg" xmlns:xlink="http://www.w3.org/1999/xlink" x="0px" y="0px"
	 viewBox="0 0 2000 2000" style="enable-background:new 0 0 2000 2000;" xml:space="preserve">
<style type="text/css">
	.st0{display:none;fill:#F1F1F1;}
	.st1{display:none;fill:#EDECE8;}
	.st2{fill:#07485B;}
	.st3{fill:#0D6986;}
	.st4{fill:#8EC7D2;}
	.st5{fill:#EDE5F4;}
</style>
<rect class="st0" width="2000" height="2000"/>
<g>
	<g>
		<path class="st2" d="M326.98,1130.65V921.81h34.92v32.18c8.98-13.39,19.78-23.36,32.41-29.9c12.63-6.54,27.24-9.82,43.82-9.82
			c24.65,0,43.9,6.55,57.75,19.63c13.85,13.09,20.77,31.27,20.77,54.55v142.19h-36.52v-123.02c0-21.15-4.45-36.86-13.35-47.13
			c-8.9-10.27-22.64-15.41-41.2-15.41c-10.65,0-20.35,1.94-29.1,5.82c-8.75,3.88-16.02,9.4-21.8,16.55
			c-4.42,5.48-7.57,11.72-9.47,18.72c-1.9,7-2.85,19.17-2.85,36.52v107.96H326.98z"/>
		<path class="st2" d="M773.88,1022.69H608.4v3.2c0,22.37,6.39,40.44,19.17,54.21c12.78,13.77,29.44,20.66,49.99,20.66
			c14,0,26.63-3.76,37.89-11.3c11.26-7.53,21.23-18.91,29.9-34.13l27.16,18.26c-10.5,18.87-23.89,33.09-40.17,42.68
			c-16.28,9.58-35.15,14.38-56.61,14.38c-31.8,0-57.52-10.5-77.15-31.5s-29.44-48.54-29.44-82.62c0-32.71,9.74-59.49,29.21-80.34
			c19.48-20.85,44.51-31.27,75.09-31.27c30.89,0,55.35,9.89,73.38,29.67c18.03,19.78,27.05,46.79,27.05,81.03V1022.69z
			 M735.54,993.71c-1.22-18.41-7.34-32.6-18.37-42.57c-11.04-9.96-26.13-14.95-45.31-14.95c-17.35,0-31.8,5.22-43.36,15.64
			c-11.57,10.43-18.26,24.39-20.09,41.88H735.54z"/>
		<rect x="829.57" y="828.22" class="st2" width="36.52" height="302.43"/>
		<path class="st2" d="M918.81,1086.6l30.58-20.54c5.78,11.11,13.09,19.44,21.91,24.99c8.82,5.56,19.25,8.33,31.27,8.33
			c11.72,0,21.19-2.89,28.42-8.67c7.22-5.78,10.84-13.39,10.84-22.83c0-7.3-2.48-13.39-7.42-18.26
			c-4.95-4.87-13.43-9.36-25.45-13.47c-1.22-0.45-3.2-1.14-5.94-2.05c-50.82-17.5-76.23-39.41-76.23-65.73
			c0-18.56,6.85-33.7,20.54-45.42c13.7-11.72,31.5-17.58,53.41-17.58c18.11,0,33.63,3.62,46.56,10.84
			c12.93,7.23,22.22,17.46,27.85,30.7l-28.99,17.8c-4.26-9.59-10.54-16.97-18.83-22.14c-8.29-5.17-17.92-7.76-28.87-7.76
			c-10.5,0-19.06,2.93-25.68,8.79c-6.62,5.86-9.93,13.35-9.93,22.48c0,12.78,13.85,23.51,41.54,32.18
			c5.17,1.67,9.28,2.97,12.33,3.88c22.67,7.3,38.46,15.63,47.36,24.99c8.9,9.36,13.35,21.73,13.35,37.09
			c0,19.78-7.04,35.8-21.11,48.04c-14.08,12.25-32.45,18.37-55.12,18.37c-19.48,0-36.03-3.65-49.64-10.96
			C937.95,1112.39,927.03,1101.36,918.81,1086.6z"/>
		<path class="st2" d="M1483.35,1130.65V921.81h34.92v32.18c8.97-13.39,19.78-23.36,32.41-29.9c12.63-6.54,27.23-9.82,43.82-9.82
			c24.65,0,43.9,6.55,57.75,19.63c13.84,13.09,20.77,31.27,20.77,54.55v142.19h-36.52v-123.02c0-21.15-4.45-36.86-13.35-47.13
			c-8.91-10.27-22.64-15.41-41.2-15.41c-10.65,0-20.35,1.94-29.1,5.82c-8.75,3.88-16.01,9.4-21.8,16.55
			c-4.42,5.48-7.57,11.72-9.47,18.72c-1.9,7-2.85,19.17-2.85,36.52v107.96H1483.35z"/>
	</g>
	<g>
		<path class="st3" d="M1228.67,1064.27c-28.66-28.04-29.17-74.01-1.13-102.68l-62.05-60.7l0,0
			c-61.56,62.93-60.45,163.85,2.48,225.42c20.76,20.31,45.66,33.75,71.91,40.45l21.54-84.07
			C1249.47,1079.65,1238.13,1073.52,1228.67,1064.27z"/>
		<path class="st4" d="M1349.36,992.81c6.73,24.15,0.78,51.12-18.01,70.33c-18.79,19.21-45.63,25.75-69.92,19.55l-21.54,84.07
			c53.33,13.61,112.25-0.76,153.5-42.93c41.26-42.17,54.32-101.39,39.54-154.41L1349.36,992.81z"/>
		<g>
			<path class="st4" d="M1165.01,1014.36c-0.01-0.67-0.05-1.32-0.05-1.99c0-63.23,51.26-114.48,114.48-114.48
				c20.14,0,39.05,5.22,55.49,14.35c-0.19-16.33-4.27-34.36-14.25-53.85c-13.16-3.52-26.97-5.42-41.24-5.42
				c-88.04,0-159.4,71.37-159.4,159.4c0,14.28,1.91,28.11,5.43,41.28C1137.37,1035.25,1150.95,1022.69,1165.01,1014.36z"/>
			<path class="st3" d="M1320.68,858.39c9.98,19.49,14.06,37.52,14.25,53.85c35.18,19.53,58.99,57.05,58.99,100.13
				c0,41.65-22.25,78.1-55.5,98.13c14.23,8,31.88,13.47,53.74,14.58c28.84-28.85,46.68-68.69,46.68-112.71
				C1438.85,938.6,1388.72,876.56,1320.68,858.39z"/>
			<path class="st2" d="M1279.44,1126.85c-62.56,0-113.36-50.19-114.43-112.49c-14.06,8.33-27.64,20.88-39.54,39.29
				c18.19,68.02,80.22,118.13,153.98,118.13c44.02,0,83.87-17.84,112.72-46.69c-21.86-1.11-39.51-6.58-53.74-14.58
				C1321.2,1120.88,1301.02,1126.85,1279.44,1126.85z"/>
		</g>
		<g>
			<path class="st5" d="M1330.22,960.47c9.46,9.25,15.83,20.46,19.14,32.34l83.58-23.38c-7.27-26.1-21.26-50.7-42.02-71.01
				c-62.93-61.56-163.85-60.45-225.42,2.48l62.05,60.7C1255.58,932.93,1301.55,932.43,1330.22,960.47z"/>
		</g>
	</g>
</g>
</svg>
